<?xml version="1.0" encoding="utf-8"?>
<!-- Generator: Adobe Illustrator 17.0.2, SVG Export Plug-In . SVG Version: 6.00 Build 0)  -->
<!DOCTYPE svg PUBLIC "-//W3C//DTD SVG 1.1//EN" "http://www.w3.org/Graphics/SVG/1.1/DTD/svg11.dtd">
<svg version="1.1" id="Layer_1" xmlns="http://www.w3.org/2000/svg" xmlns:xlink="http://www.w3.org/1999/xlink" x="0px" y="0px"
	 width="22.001px" height="31.394px" viewBox="59.661 85.124 22.001 31.394" enable-background="new 59.661 85.124 22.001 31.394"
	 xml:space="preserve">
<path fill="#085683" stroke="#085683" stroke-miterlimit="10" d="M70.662,85.624c-5.799,0-10.501,4.701-10.501,10.5
	c0,2.386,0.798,4.586,2.139,6.35l8.392,13.114l8.275-13.042c1.375-1.776,2.195-4.002,2.195-6.422
	C81.162,90.326,76.461,85.624,70.662,85.624z M70.662,100.754c-2.596,0-4.7-2.104-4.7-4.7c0-2.596,2.104-4.7,4.7-4.7
	c2.595,0,4.7,2.104,4.7,4.7C75.361,98.65,73.257,100.754,70.662,100.754z"/>
</svg>
